<svg width="780" height="376" viewBox="0 0 780 376" fill="none" xmlns="http://www.w3.org/2000/svg">
<g filter="url(#filter0_d_6_10)">
<rect x="6" width="767.315" height="361.648" rx="40" fill="black"/>
</g>
<path d="M59.6226 104.73H719.692V342C719.692 353.046 710.738 362 699.692 362H79.6227C68.577 362 59.6226 353.046 59.6226 342V104.73Z" fill="white"/>
<rect x="33" y="26" width="54" height="24.9851" rx="10" fill="#00CC00"/>
<rect x="37.0299" y="28.4179" width="19.3433" height="19.3433" rx="9.67164" fill="white"/>
<path d="M70.1724 38.397V38.9463C70.1724 39.752 70.0649 40.4771 69.8501 41.1216C69.6353 41.7612 69.3301 42.3057 68.9346 42.7549C68.5391 43.2041 68.0679 43.5483 67.521 43.7876C66.9741 44.0269 66.3662 44.1465 65.6973 44.1465C65.0381 44.1465 64.4326 44.0269 63.8809 43.7876C63.334 43.5483 62.8604 43.2041 62.46 42.7549C62.0596 42.3057 61.7495 41.7612 61.5298 41.1216C61.3101 40.4771 61.2002 39.752 61.2002 38.9463V38.397C61.2002 37.5864 61.3101 36.8613 61.5298 36.2217C61.7495 35.582 62.0571 35.0376 62.4526 34.5884C62.8481 34.1343 63.3193 33.7876 63.8662 33.5483C64.418 33.3091 65.0234 33.1895 65.6826 33.1895C66.3516 33.1895 66.9595 33.3091 67.5063 33.5483C68.0532 33.7876 68.5244 34.1343 68.9199 34.5884C69.3203 35.0376 69.6279 35.582 69.8428 36.2217C70.0625 36.8613 70.1724 37.5864 70.1724 38.397ZM68.1362 38.9463V38.3823C68.1362 37.8013 68.0825 37.291 67.9751 36.8516C67.8677 36.4072 67.709 36.0337 67.499 35.731C67.2891 35.4282 67.0303 35.2012 66.7227 35.0498C66.415 34.8936 66.0684 34.8154 65.6826 34.8154C65.292 34.8154 64.9453 34.8936 64.6426 35.0498C64.3447 35.2012 64.0908 35.4282 63.8809 35.731C63.6709 36.0337 63.5098 36.4072 63.3975 36.8516C63.29 37.291 63.2363 37.8013 63.2363 38.3823V38.9463C63.2363 39.5225 63.29 40.0327 63.3975 40.4771C63.5098 40.9214 63.6709 41.2974 63.8809 41.605C64.0957 41.9077 64.3545 42.1372 64.6572 42.2935C64.96 42.4497 65.3066 42.5278 65.6973 42.5278C66.0879 42.5278 66.4346 42.4497 66.7373 42.2935C67.04 42.1372 67.2939 41.9077 67.499 41.605C67.709 41.2974 67.8677 40.9214 67.9751 40.4771C68.0825 40.0327 68.1362 39.5225 68.1362 38.9463ZM80.4482 33.3359V44H78.4268L73.8931 36.6025V44H71.8789V33.3359H73.8931L78.4414 40.7407V33.3359H80.4482Z" fill="white"/>
<path d="M59.6226 73.4591H141.333V362H79.6226C68.577 362 59.6226 353.046 59.6226 342V73.4591Z" fill="white"/>
<path d="M141.333 73.4591H224.321V362H141.333V73.4591Z" fill="white"/>
<path d="M224.321 73.4591H307.308V362H224.321V73.4591Z" fill="white"/>
<path d="M307.308 73.4591H389.019V362H307.308V73.4591Z" fill="white"/>
<path d="M389.019 73.4591H472.006V362H389.019V73.4591Z" fill="white"/>
<path d="M472.006 73.4591H554.994V362H472.006V73.4591Z" fill="white"/>
<path d="M554.994 73.4591H636.704V362H554.994V73.4591Z" fill="white"/>
<path d="M636.704 73.4591H719.692V342C719.692 353.046 710.738 362 699.692 362H636.704V73.4591Z" fill="white"/>
<rect x="141.333" y="230.497" width="3.83019" height="131.503" fill="black"/>
<rect x="386.465" y="230.497" width="3.83019" height="131.503" fill="black"/>
<rect x="469.453" y="230.497" width="3.83019" height="131.503" fill="black"/>
<path d="M120.906 73.4591H160.484V220.497C160.484 226.02 156.007 230.497 150.484 230.497H130.906C125.383 230.497 120.906 226.02 120.906 220.497V73.4591Z" fill="black"/>
<rect x="223.044" y="230.497" width="3.83019" height="131.503" fill="black"/>
<path d="M203.893 73.4591H243.472V220.497C243.472 226.02 238.995 230.497 233.472 230.497H213.893C208.37 230.497 203.893 226.02 203.893 220.497V73.4591Z" fill="black"/>
<rect x="304.755" y="73.4591" width="3.83019" height="288.541" fill="black"/>
<path d="M368.591 73.4591H408.17V220.497C408.17 226.02 403.693 230.497 398.17 230.497H378.591C373.068 230.497 368.591 226.02 368.591 220.497V73.4591Z" fill="black"/>
<path d="M451.579 73.4591H491.157V220.497C491.157 226.02 486.68 230.497 481.157 230.497H461.579C456.056 230.497 451.579 226.02 451.579 220.497V73.4591Z" fill="black"/>
<path d="M616.277 73.4591H655.855V220.497C655.855 226.02 651.378 230.497 645.855 230.497H626.277C620.754 230.497 616.277 226.02 616.277 220.497V73.4591Z" fill="black"/>
<rect x="552.44" y="73.4591" width="3.83019" height="288.541" fill="black"/>
<rect x="634.151" y="230.497" width="3.83019" height="131.503" fill="black"/>
<defs>
<filter id="filter0_d_6_10" x="0" y="0" width="779.315" height="375.648" filterUnits="userSpaceOnUse" color-interpolation-filters="sRGB">
<feFlood flood-opacity="0" result="BackgroundImageFix"/>
<feColorMatrix in="SourceAlpha" type="matrix" values="0 0 0 0 0 0 0 0 0 0 0 0 0 0 0 0 0 0 127 0" result="hardAlpha"/>
<feOffset dy="8"/>
<feGaussianBlur stdDeviation="3"/>
<feComposite in2="hardAlpha" operator="out"/>
<feColorMatrix type="matrix" values="0 0 0 0 0 0 0 0 0 0 0 0 0 0 0 0 0 0 0.25 0"/>
<feBlend mode="normal" in2="BackgroundImageFix" result="effect1_dropShadow_6_10"/>
<feBlend mode="normal" in="SourceGraphic" in2="effect1_dropShadow_6_10" result="shape"/>
</filter>
</defs>
</svg>
